# xmcd
#
# Track frame offsets:
#	150
#	12807
#	33705
#	54575
#	76467
#	100270
#	123742
#	143387
#	161830
#	179105
#	200010
#	214967
#	235042
#	248540
#	254592
# Disc length: 3621 seconds
# Revision: 10
# Processed by: cddbd v1.5.1PL2 Copyright (c) Steve Scherf et al.
#
# Submitted via: libkcddb 0.21
#
DISCID=d80e230f
DTITLE=SWV - Sisters With Voices - It's About Time
DYEAR=1992
DGENRE=R&B
TTITLE0=Anything
TTITLE1=I'm So Into You
TTITLE2=Right Here
TTITLE3=Weak
TTITLE4=You're Always On My Mind
TTITLE5=Downtown
TTITLE6=Coming Home
TTITLE7=Give It To Me
TTITLE8=Blak Pudd'n
TTITLE9=It's About Time
TTITLE10=Think You're Gonna Like It
TTITLE11=That's What I Need
TTITLE12=SWV (In The House)
TTITLE13=Weak (A Cappella)
TTITLE14=Right Here/Human Nature Remix
EXTD=YEAR: 1992
EXTT0=
EXTT1=
EXTT2=
EXTT3=
EXTT4=
EXTT5=
EXTT6=
EXTT7=
EXTT8=
EXTT9=
EXTT10=
EXTT11=
EXTT12=
EXTT13=Bonus Track
EXTT14=
PLAYORDER=
